<?xml version="1.0" encoding="UTF-8"?>
<svg width="499" height="285" viewBox="0 0 499 285" fill="none" xmlns="http://www.w3.org/2000/svg">
	<path d="M2.08404e-05 35C-0.00504704 20.8412 8.52096 8.07408 21.6011 2.65374C34.6813 -2.76659 49.7388 0.227715 59.75 10.24L249.49 199.99L439.23 10.24C448.072 1.39768 460.96 -2.05564 473.039 1.18087C485.118 4.41738 494.553 13.852 497.789 25.9309C501.026 38.0097 497.572 50.8977 488.73 59.74L274.24 274.24C267.676 280.805 258.773 284.493 249.49 284.493C240.207 284.493 231.304 280.805 224.74 274.24L10.25 59.74C3.67858 53.185 -0.0101167 44.2818 2.08404e-05 35Z" fill="#555555"/>
</svg>
